<?xml version="1.0" standalone="no"?>
<!DOCTYPE svg PUBLIC "-//W3C//DTD SVG 20010904//EN"
 "http://www.w3.org/TR/2001/REC-SVG-20010904/DTD/svg10.dtd">
<svg version="1.0" xmlns="http://www.w3.org/2000/svg"
 width="512.000000pt" height="512.000000pt" viewBox="0 0 512.000000 512.000000"
 preserveAspectRatio="xMidYMid meet">
<metadata>
Created by potrace 1.14, written by Peter Selinger 2001-2017
</metadata>
<g transform="translate(0.000000,512.000000) scale(0.100000,-0.100000)"
fill="#000000" stroke="none">
<path d="M1540 5106 c-30 -16 -829 -817 -847 -849 -17 -30 -16 -102 2 -137 30
-58 128 -89 188 -59 12 6 145 133 295 282 l272 272 0 -472 0 -473 -677 -2
-678 -3 -34 -24 c-65 -47 -61 78 -61 -1808 0 -1616 1 -1720 18 -1752 9 -19 30
-44 45 -55 l28 -21 1717 -3 c944 -1 1731 0 1748 3 24 4 127 102 479 455 247
247 455 460 462 472 19 35 16 106 -7 143 -34 56 -126 83 -183 54 -12 -6 -160
-149 -329 -317 l-308 -307 0 472 0 473 678 2 677 3 34 24 c64 46 61 -8 61
1084 l0 994 -23 33 c-35 53 -68 72 -122 72 -54 0 -87 -19 -123 -72 l-22 -33 0
-908 0 -909 -580 0 -580 0 0 863 0 862 715 715 c567 567 718 723 727 752 21
71 -13 147 -78 174 -49 21 -3456 21 -3494 0z m2505 -856 l-580 -580 -862 0
-863 0 0 580 0 580 1442 0 1443 0 -580 -580z m-665 -2415 l0 -1545 -1545 0
-1545 0 0 1545 0 1545 1545 0 1545 0 0 -1545z"/>
</g>
</svg>
