<?xml version="1.0" standalone="no"?>
<!DOCTYPE svg PUBLIC "-//W3C//DTD SVG 20010904//EN"
 "http://www.w3.org/TR/2001/REC-SVG-20010904/DTD/svg10.dtd">
<svg version="1.0" xmlns="http://www.w3.org/2000/svg"
 width="512.000000pt" height="512.000000pt" viewBox="0 0 512.000000 512.000000"
 preserveAspectRatio="xMidYMid meet">
<metadata>
Created by potrace 1.14, written by Peter Selinger 2001-2017
</metadata>
<g transform="translate(0.000000,512.000000) scale(0.100000,-0.100000)"
fill="#000000" stroke="none">
<path d="M1545 5110 c-11 -4 -207 -195 -435 -424 -404 -406 -442 -449 -435
-498 19 -124 136 -179 231 -109 21 16 151 142 289 280 137 138 251 251 252
251 2 0 3 -211 3 -470 l0 -470 -664 0 c-732 0 -712 2 -758 -62 l-23 -33 0
-1742 c0 -1735 0 -1742 20 -1769 11 -15 36 -35 55 -46 34 -17 98 -18 1752 -18
976 0 1727 4 1740 9 26 10 905 888 925 923 17 32 16 105 -3 136 -39 67 -134
92 -196 54 -18 -12 -166 -154 -328 -317 l-295 -295 -3 466 c-1 257 -1 469 1
470 2 2 307 5 679 6 662 3 677 3 704 23 15 11 35 36 45 55 18 33 19 80 19
1027 0 1101 4 1034 -66 1082 -62 42 -148 27 -196 -35 l-23 -29 -3 -917 -2
-918 -580 0 -580 0 0 862 0 863 719 720 c706 706 720 721 726 766 8 55 -15
111 -58 143 l-28 21 -1732 2 c-953 1 -1741 -2 -1752 -7z m2500 -860 l-580
-580 -862 0 -863 0 0 580 0 580 1442 0 1443 0 -580 -580z"/>
</g>
</svg>
